<?xml version="1.0" encoding="UTF-8"?>
<!-- Generator: visioncortex VTracer 0.6.3 -->
<svg version="1.1" xmlns="http://www.w3.org/2000/svg" width="1280" height="581">
<path d="M0 0 C422.4 0 844.8 0 1280 0 C1280 83.49 1280 166.98 1280 253 C857.6 253 435.2 253 0 253 C0 169.51 0 86.02 0 0 Z " fill="#92C01E" transform="translate(0,328)"/>
<path d="M0 0 C1.25 0.01 1.25 0.01 2.52 0.03 C8.44 0.25 12.56 1.4 17.26 5.18 C18.56 6.69 18.56 6.69 18.56 8.69 C19.88 9.35 21.2 10.01 22.56 10.69 C22.56 11.68 22.56 12.67 22.56 13.69 C23.22 13.69 23.88 13.69 24.56 13.69 C26.6 17.9 26.86 21.7 26.87 26.29 C26.87 27.04 26.88 27.79 26.89 28.56 C26.92 31.02 26.93 33.49 26.94 35.96 C26.96 37.68 26.97 39.4 26.99 41.12 C27.04 45.66 27.07 50.19 27.11 54.72 C27.16 61.97 27.22 69.21 27.29 76.45 C27.32 78.97 27.33 81.5 27.35 84.02 C27.36 85.58 27.38 87.14 27.39 88.7 C27.39 89.39 27.39 90.08 27.4 90.8 C27.45 95.51 27.91 100.03 28.56 104.69 C28.91 103.68 29.26 102.67 29.62 101.62 C31.73 96.65 35.7 92.12 40.56 89.69 C41.11 89.09 41.66 88.49 42.23 87.88 C54.25 76.6 72.46 73.38 88.25 73.25 C89.28 73.24 90.32 73.23 91.38 73.22 C98.81 73.3 105.46 74.57 112.56 76.69 C113.38 76.93 114.19 77.17 115.03 77.41 C131.9 82.7 149.39 93.84 160.56 107.69 C160.56 108.35 160.56 109.01 160.56 109.69 C161.22 109.69 161.88 109.69 162.56 109.69 C165.16 112.83 167.32 116.29 169.56 119.69 C170.07 120.42 170.58 121.15 171.11 121.91 C187.48 146.86 188.79 180.61 183.16 209.11 C180.59 220.16 176.28 234.17 167.95 242.25 C166.3 243.75 166.3 243.75 165.56 246.69 C164.9 247.02 164.24 247.35 163.56 247.69 C163.23 248.68 162.9 249.67 162.56 250.69 C161.24 251.37 159.9 252.03 158.56 252.69 C156.93 254.14 155.35 255.64 153.81 257.19 C153.01 257.98 152.21 258.78 151.39 259.59 C149.34 261.48 149.34 261.48 149.56 263.69 C148.24 264.02 146.92 264.35 145.56 264.69 C145.56 265.35 145.56 266.01 145.56 266.69 C138.16 272.02 130.01 276.28 121.56 279.69 C120.83 279.98 120.09 280.28 119.34 280.59 C100.65 287.45 75.4 287.46 56.86 280.25 C45.14 274.78 35.92 267.32 28.56 256.69 C28.44 257.51 28.32 258.33 28.2 259.17 C28.03 260.25 27.86 261.33 27.69 262.44 C27.53 263.5 27.36 264.57 27.2 265.67 C26.62 268.4 26.05 270.35 24.56 272.69 C22.91 273.71 21.24 274.71 19.56 275.69 C17.93 277.65 17.93 277.65 16.56 279.69 C14.27 282.82 11.53 283.53 7.8 284.34 C-0.56 285.64 -8.55 284.99 -15.56 280 C-20.83 275.75 -25.38 271.25 -27.44 264.69 C-27.74 261.41 -27.72 258.14 -27.71 254.85 C-27.72 253.85 -27.72 252.85 -27.73 251.82 C-27.74 248.47 -27.74 245.12 -27.74 241.77 C-27.75 239.37 -27.76 236.97 -27.77 234.57 C-27.79 228.05 -27.8 221.53 -27.8 215 C-27.81 210.93 -27.81 206.85 -27.82 202.78 C-27.84 191.49 -27.86 180.2 -27.86 168.91 C-27.86 168.19 -27.86 167.47 -27.86 166.72 C-27.86 165.26 -27.86 163.8 -27.86 162.33 C-27.86 161.6 -27.86 160.88 -27.86 160.13 C-27.86 159.4 -27.86 158.67 -27.86 157.92 C-27.87 146.14 -27.89 134.35 -27.93 122.57 C-27.97 110.46 -27.99 98.35 -27.99 86.24 C-27.99 79.45 -28 72.65 -28.03 65.86 C-28.05 59.47 -28.06 53.07 -28.04 46.68 C-28.04 44.34 -28.04 41.99 -28.06 39.65 C-28.08 36.45 -28.07 33.24 -28.05 30.04 C-28.07 29.11 -28.08 28.19 -28.09 27.24 C-27.99 19.35 -25.16 13.92 -20.12 7.94 C-13.6 2.47 -8.64 -0.2 0 0 Z M52.56 125.69 C51.51 125.94 51.51 125.94 50.44 126.19 C47.92 126.86 46.58 128.02 44.56 129.69 C43.98 130.17 43.39 130.65 42.79 131.15 C39.17 134 39.17 134 36.56 137.69 C35.9 138.68 35.24 139.67 34.56 140.69 C34.29 141.51 34.03 142.34 33.75 143.19 C32.73 146.19 31.54 148.74 30.12 151.56 C22.42 168.32 22.72 188.29 28.85 205.5 C34.14 218.6 41.92 228.56 54.85 234.59 C68.47 240.11 83.67 240.69 97.56 235.69 C100.99 234.18 104.28 232.49 107.56 230.69 C108.89 230.02 110.23 229.35 111.56 228.69 C111.56 228.03 111.56 227.37 111.56 226.69 C112.24 226.19 112.92 225.7 113.62 225.19 C123.72 216.59 128.69 203.53 130.56 190.69 C130.84 187.12 130.9 183.58 130.88 180 C130.87 179.05 130.87 178.1 130.87 177.12 C130.75 169.16 130.05 161.3 127.56 153.69 C126.9 153.36 126.24 153.03 125.56 152.69 C124.99 150.97 124.99 150.97 124.44 148.75 C122.57 142.77 118.93 138.12 114.56 133.69 C113.57 133.36 112.58 133.03 111.56 132.69 C111.56 132.03 111.56 131.37 111.56 130.69 C93.18 117.46 72.66 115.21 52.56 125.69 Z " fill="#4495D1" transform="translate(1059.4375,-0.6875)"/>
<path d="M0 0 C1.83 1.41 1.83 1.41 3.56 3 C4.48 3.79 4.48 3.79 5.42 4.59 C10.87 9.92 12.71 16.35 14.8 23.47 C16.01 27.49 17.32 31.48 18.61 35.48 C19.78 39.09 20.94 42.7 22.09 46.31 C23.77 51.54 25.46 56.77 27.16 62 C31.08 74.09 34.97 86.19 38.58 98.38 C42.29 111.49 42.29 111.49 47.56 124 C51.7 116.23 54.83 108.05 58.06 99.88 C58.68 98.32 59.3 96.76 59.92 95.21 C60.87 92.82 61.81 90.44 62.76 88.05 C64.82 82.87 66.89 77.69 68.97 72.52 C69.51 71.18 70.05 69.85 70.59 68.51 C71.58 66.05 72.57 63.58 73.57 61.12 C75.89 55.34 78.1 49.53 80.15 43.64 C81.72 39.19 83.42 35 85.63 30.83 C87.71 26.76 89.26 22.43 90.92 18.18 C94.24 9.87 98.44 4.01 106.3 -0.61 C112.96 -3.45 120.93 -3.36 127.69 -0.83 C132.44 1.85 134.86 3.7 136.56 9 C137.22 9 137.88 9 138.56 9 C143.87 21.06 148.89 33.23 153.69 45.5 C158.48 57.76 163.36 69.99 168.31 82.19 C168.63 82.97 168.95 83.75 169.27 84.56 C172.33 92.09 175.4 99.61 178.51 107.12 C178.94 108.15 179.37 109.19 179.81 110.25 C180.58 112.1 181.35 113.95 182.13 115.8 C182.45 116.59 182.78 117.38 183.12 118.2 C183.54 119.2 183.54 119.2 183.97 120.23 C184.56 122 184.56 122 184.56 125 C185.55 125 186.54 125 187.56 125 C187.68 123.84 187.8 122.67 187.92 121.47 C188.45 117.31 189.49 113.4 190.79 109.41 C191.01 108.71 191.23 108.01 191.45 107.29 C192.17 105.02 192.9 102.76 193.62 100.5 C194.13 98.91 194.64 97.32 195.14 95.72 C198.12 86.37 201.19 77.04 204.35 67.74 C206.61 61.03 208.73 54.28 210.8 47.51 C211.24 46.1 211.24 46.1 211.68 44.67 C213.12 39.95 214.57 35.23 216 30.5 C216.53 28.74 217.07 26.98 217.61 25.22 C217.85 24.43 218.09 23.63 218.33 22.81 C221.88 11.24 221.88 11.24 224.56 7 C225.89 6.32 227.22 5.65 228.56 5 C228.89 4.01 229.22 3.02 229.56 2 C236.06 -2.72 243.86 -2.95 251.56 -2 C259.04 0.09 264.5 5.67 268.5 12.12 C271.06 19.27 270.4 27.05 267.78 34.02 C265.64 39.79 263.61 45.59 261.61 51.42 C260.85 53.64 260.08 55.86 259.32 58.08 C258.92 59.24 258.52 60.4 258.11 61.59 C250.76 82.97 243.31 104.31 235.73 125.61 C232.21 135.5 228.71 145.41 225.27 155.34 C224.93 156.33 224.58 157.33 224.22 158.36 C222.57 163.12 220.93 167.87 219.29 172.63 C218.71 174.32 218.12 176.01 217.54 177.7 C217.28 178.45 217.02 179.21 216.76 179.99 C212.8 191.37 212.8 191.37 206.56 195 C204.92 196.76 203.4 198.59 201.89 200.48 C199.65 203.05 198.43 203.01 194.93 203.27 C179.78 203.76 179.78 203.76 173.56 198 C166.98 191.59 163.26 184.99 159.75 176.56 C159.25 175.39 158.74 174.22 158.23 173.02 C157.18 170.57 156.14 168.13 155.11 165.68 C153.6 162.08 152.06 158.5 150.52 154.91 C146.4 145.27 142.37 135.62 138.67 125.81 C137.74 123.46 136.74 121.24 135.56 119 C133.83 115.69 132.5 112.31 131.19 108.81 C129.06 103.15 126.62 97.7 124.05 92.23 C117.56 78.19 117.56 78.19 117.56 75 C116.9 75 116.24 75 115.56 75 C115.45 76.16 115.45 76.16 115.33 77.34 C114.27 82.38 112.26 86.85 110.21 91.57 C109.76 92.62 109.31 93.67 108.84 94.75 C107.36 98.21 105.87 101.67 104.38 105.12 C102.55 109.38 100.72 113.63 98.89 117.88 C98.36 119.13 97.82 120.39 97.28 121.64 C93.23 131.06 89.25 140.5 85.32 149.96 C84.32 152.36 83.32 154.75 82.32 157.14 C80.89 160.58 79.45 164.03 78.03 167.48 C76.72 170.67 75.39 173.85 74.05 177.04 C73.67 177.98 73.29 178.92 72.9 179.88 C70.75 184.97 68.76 188.4 64.56 192 C63.5 193.19 62.46 194.4 61.44 195.62 C55.79 202.37 55.79 202.37 51.56 203 C36.18 204.25 36.18 204.25 29.55 199.79 C22.5 193.44 18.92 186.33 16.49 177.27 C15.26 172.94 13.5 168.91 11.72 164.78 C10.11 160.92 8.83 156.98 7.56 153 C7.08 151.58 6.61 150.17 6.12 148.75 C4.88 145.04 3.75 141.31 2.62 137.56 C1.18 132.82 -0.49 128.27 -2.38 123.7 C-4.66 117.89 -6.5 111.92 -8.44 106 C-12.68 92.96 -12.68 92.96 -17.57 80.15 C-19.69 74.9 -21.3 69.49 -22.88 64.06 C-23.87 60.68 -25.03 57.44 -26.38 54.19 C-28.42 49.25 -29.91 44.22 -31.42 39.1 C-32.32 36.34 -33.39 33.9 -34.69 31.31 C-37.3 25.6 -37.59 20.31 -35.52 14.36 C-32.35 7.52 -28.03 1.19 -20.68 -1.52 C-13.95 -2.95 -6.13 -3.54 0 0 Z M47.56 125 C48.56 127 48.56 127 48.56 127 Z M185.56 126 C185.89 126.66 186.22 127.32 186.56 128 C186.89 127.34 187.22 126.68 187.56 126 C186.9 126 186.24 126 185.56 126 Z M66.56 186 C67.56 188 67.56 188 67.56 188 Z " fill="#4496D1" transform="translate(512.4375,75)"/>
<path d="M0 0 C3.53 2.82 6.79 5.82 10 9 C10.57 9.53 11.14 10.06 11.73 10.61 C12.87 11.69 13.94 12.84 15 14 C15 14.66 15 15.32 15 16 C15.66 16 16.32 16 17 16 C17.33 16.66 17.66 17.32 18 18 C17.94 16.99 17.88 15.98 17.81 14.94 C18.22 6.43 22.95 0.58 29 -5 C35.25 -8.69 40.74 -10.78 48 -10 C57.54 -6.82 64.15 -1.8 69.13 7.07 C70.51 10.13 70.5 12.9 70.51 16.22 C70.51 16.92 70.52 17.61 70.53 18.32 C70.54 20.63 70.53 22.93 70.52 25.23 C70.52 26.89 70.53 28.54 70.54 30.2 C70.56 34.69 70.55 39.18 70.54 43.67 C70.53 48.37 70.54 53.08 70.54 57.78 C70.55 65.67 70.54 73.56 70.52 81.46 C70.5 90.58 70.51 99.71 70.53 108.83 C70.55 116.67 70.55 124.51 70.54 132.35 C70.53 137.03 70.53 141.71 70.55 146.39 C70.56 150.79 70.55 155.18 70.53 159.58 C70.52 161.19 70.52 162.81 70.53 164.42 C70.54 166.62 70.53 168.83 70.51 171.03 C70.51 172.26 70.5 173.5 70.5 174.76 C69.91 178.6 68.6 180.19 66 183 C65.67 183.66 65.34 184.32 65 185 C59 191.43 54.03 194.68 45.06 195.25 C40.21 195.13 35.36 194.18 31 192 C31 191.34 31 190.68 31 190 C30.12 189.89 30.12 189.89 29.23 189.77 C26.24 188.74 25.24 187.2 23.38 184.69 C22.49 183.52 22.49 183.52 21.59 182.32 C18.38 177.62 17.78 174.78 18 169 C13.94 171.04 13.94 171.04 12 175 C9.94 176.19 9.94 176.19 8 177 C8 177.99 8 178.98 8 180 C7.36 180.1 6.72 180.21 6.06 180.31 C5.38 180.54 4.7 180.77 4 181 C3.67 181.99 3.34 182.98 3 184 C-14.96 195.2 -35.28 197.58 -55.94 193.81 C-68.66 190.82 -79.21 186.22 -90 179 C-91.11 178.3 -92.23 177.6 -93.38 176.88 C-94.24 176.26 -95.11 175.64 -96 175 C-96 174.34 -96 173.68 -96 173 C-96.86 172.63 -96.86 172.63 -97.73 172.25 C-105.65 167.89 -111.24 159.45 -116 152 C-116.56 151.14 -117.12 150.28 -117.7 149.39 C-119 147 -119 147 -119 144 C-119.66 143.67 -120.32 143.34 -121 143 C-133.92 121.16 -135.42 90.3 -130 66 C-126.05 50.62 -119.38 35.16 -109 23 C-108.01 22.5 -108.01 22.5 -107 22 C-106.18 21.01 -105.35 20.02 -104.5 19 C-79.76 -9.78 -32.88 -22.05 0 0 Z M-53.44 40.7 C-55.69 41.84 -57.57 42.44 -60 43 C-61.6 44.35 -61.6 44.35 -63 46 C-63.47 46.45 -63.95 46.91 -64.44 47.38 C-69.01 52.13 -72 56.73 -74 63 C-75.29 66.52 -76.58 70.04 -77.88 73.56 C-82.03 86.29 -81.47 102.46 -77 115 C-76.65 116.01 -76.3 117.03 -75.93 118.07 C-71.78 129 -64.74 139.01 -54.14 144.47 C-41.09 150.15 -25.8 153 -12 148 C-8.59 146.47 -5.29 144.77 -2 143 C-1.3 142.69 -0.59 142.38 0.13 142.07 C2.34 140.81 3.21 139.57 4.56 137.44 C6.67 134.11 6.67 134.11 10 133 C11.1 130.71 11.1 130.71 12 128 C12.83 126.23 13.66 124.46 14.5 122.69 C22.4 105.31 20.32 86.44 18 68 C17.34 68 16.68 68 16 68 C15.88 67.28 15.76 66.55 15.64 65.8 C13.16 54.88 6 46.71 -3.1 40.64 C-20.32 30.91 -36.29 31.34 -53.44 40.7 Z M-129 66 C-128 68 -128 68 -128 68 Z M20 82 C21 85 21 85 21 85 Z M20 100 C21 104 21 104 21 104 Z M18 167 C19 169 19 169 19 169 Z " fill="#4495D1" transform="translate(304,85)"/>
<path d="M0 0 C11.71 9.78 26.86 24.88 28.38 40.87 C28.35 42.78 28.35 42.78 28.33 44.73 C28.32 46.01 28.32 47.3 28.31 48.62 C28.04 51.75 27.78 53.49 26.01 56.04 C24.35 57.05 22.68 58.05 21.01 59.04 C19.66 60.69 18.33 62.36 17.01 64.04 C12.68 67.93 7.78 70.54 2.7 73.29 C1.9 73.73 1.11 74.17 0.28 74.63 C-5.48 77.78 -11.34 80.74 -17.22 83.67 C-26.26 88.16 -35.24 92.76 -44.23 97.35 C-47.28 98.91 -50.34 100.47 -53.39 102.02 C-62.88 106.86 -72.35 111.73 -81.78 116.68 C-82.57 117.09 -83.36 117.5 -84.17 117.93 C-84.9 118.31 -85.62 118.69 -86.37 119.09 C-87.31 119.58 -87.31 119.58 -88.28 120.09 C-89.9 120.99 -91.45 122.02 -92.99 123.04 C-86.67 132.18 -76.82 137.22 -66.12 139.68 C-48.54 142.67 -32.76 138.77 -17.99 129.04 C-17.27 128.59 -16.56 128.13 -15.83 127.66 C-12.19 125.21 -9.56 122.58 -6.99 119.04 C-6.33 118.38 -5.67 117.72 -4.99 117.04 C-4.33 116.05 -3.67 115.06 -2.99 114.04 C9.84 96.73 9.84 96.73 19.08 94.29 C23.41 93.74 26.38 94.33 30.12 96.56 C34.42 99.93 38.27 103.83 40.01 109.04 C40.89 120.93 39.4 130.44 32.01 140.04 C31.35 140.37 30.69 140.7 30.01 141.04 C29.68 141.7 29.35 142.36 29.01 143.04 C28.5 143.54 27.98 144.03 27.45 144.54 C25.78 145.94 25.78 145.94 26.01 148.04 C25.29 148.46 24.57 148.87 23.83 149.29 C20.45 151.39 18.54 154 16.01 157.04 C14.69 157.73 13.36 158.4 12.01 159.04 C11.72 159.67 11.43 160.3 11.12 160.94 C9.84 163.37 8.76 164.17 6.44 165.6 C5.36 166.27 5.36 166.27 4.25 166.95 C3.08 167.65 3.08 167.65 1.89 168.36 C1.08 168.84 0.27 169.32 -0.56 169.82 C-28.13 186.02 -58.66 190.53 -89.99 183.92 C-100.87 180.96 -110.76 175.19 -119.92 168.73 C-120.52 168.31 -121.12 167.89 -121.73 167.46 C-124.53 165.4 -125.86 164.41 -126.99 161.04 C-128.31 160.36 -129.65 159.7 -130.99 159.04 C-149.29 141.54 -163.37 113.67 -164.32 88.2 C-164.72 61.01 -157.43 33.28 -137.99 13.04 C-136.66 12.37 -135.33 11.7 -133.99 11.04 C-132.42 9.51 -132.42 9.51 -131.05 7.73 C-120.46 -5.39 -104.87 -13.09 -88.99 -17.96 C-87.44 -18.46 -87.44 -18.46 -85.86 -18.98 C-56.11 -27.09 -23.58 -19.18 0 0 Z M-84.09 29.83 C-86.99 31.04 -86.99 31.04 -90.23 32.12 C-93.13 33.09 -94.67 34.08 -96.99 36.04 C-97.57 36.53 -98.15 37.01 -98.75 37.5 C-102.38 40.35 -102.38 40.35 -104.99 44.04 C-104.66 44.7 -104.33 45.36 -103.99 46.04 C-105.31 46.37 -106.63 46.7 -107.99 47.04 C-108.1 47.75 -108.21 48.46 -108.33 49.19 C-109.04 52.27 -110.16 54.81 -111.49 57.67 C-115.39 66.89 -115.92 75.44 -112.99 85.04 C-112.35 86.39 -111.7 87.73 -110.99 89.04 C-107.14 88.44 -104.17 87.3 -100.73 85.49 C-99.22 84.7 -99.22 84.7 -97.67 83.89 C-96.07 83.04 -96.07 83.04 -94.42 82.17 C-93.31 81.59 -92.2 81 -91.06 80.4 C-83.3 76.32 -75.62 72.12 -67.96 67.86 C-62.37 64.76 -56.7 61.86 -50.96 59.05 C-42.8 55.02 -34.9 50.52 -26.99 46.04 C-29.07 38.43 -33.94 34.42 -40.63 30.49 C-43.06 29.26 -45.48 28.11 -47.99 27.04 C-48.78 26.69 -49.58 26.33 -50.39 25.96 C-62.33 21.75 -73.07 24.99 -84.09 29.83 Z M-161.99 63.04 C-160.99 65.04 -160.99 65.04 -160.99 65.04 Z M-162.99 69.04 C-161.99 71.04 -161.99 71.04 -161.99 71.04 Z M-58.99 142.04 C-58.99 142.37 -58.99 142.7 -58.99 143.04 C-56.02 143.04 -53.05 143.04 -49.99 143.04 C-49.99 142.71 -49.99 142.38 -49.99 142.04 C-52.96 142.04 -55.93 142.04 -58.99 142.04 Z " fill="#4395D1" transform="translate(955.987060546875,92.95556640625)"/>
<path d="M0 0 C4.2 2.34 6.87 5.75 9 10 C9.39 12.9 9.39 12.9 9.41 16.17 C9.42 17.41 9.44 18.65 9.45 19.93 C9.45 21.29 9.45 22.66 9.45 24.03 C9.46 25.47 9.47 26.92 9.49 28.36 C9.52 32.29 9.53 36.21 9.53 40.13 C9.54 42.58 9.55 45.03 9.56 47.49 C9.59 56.05 9.61 64.61 9.61 73.17 C9.61 81.14 9.65 89.11 9.71 97.08 C9.76 103.93 9.78 110.78 9.78 117.63 C9.78 121.72 9.79 125.81 9.83 129.9 C9.87 133.75 9.87 137.59 9.85 141.44 C9.84 142.85 9.85 144.25 9.87 145.66 C10.05 157.59 10.05 157.59 5.57 162.84 C1.22 167.07 -2.04 167.47 -8.03 167.41 C-12.97 166.73 -16.55 164.55 -20 161 C-21.26 158.54 -21.61 156.78 -22 154 C-25.11 155.38 -27.16 157 -29.56 159.38 C-39.72 168.21 -51.67 167.94 -64.51 167.21 C-77.67 166.08 -91.06 157.22 -99.97 147.7 C-111.74 132.06 -115.23 113.06 -112.72 93.88 C-110.19 79.37 -102.33 64 -90.44 55.08 C-77.33 46.36 -64.83 41.59 -49 43 C-37.99 45.48 -29.9 51.1 -22 59 C-22.01 58.44 -22.02 57.88 -22.03 57.31 C-22.12 51.47 -22.18 45.63 -22.22 39.79 C-22.24 37.61 -22.27 35.43 -22.3 33.26 C-22.35 30.12 -22.37 26.98 -22.39 23.84 C-22.41 22.88 -22.43 21.91 -22.45 20.92 C-22.46 14.77 -21.54 10.12 -18 5 C-12.29 -0.43 -7.62 -2.05 0 0 Z " fill="#FBFDFD" transform="translate(144,358)"/>
<path d="M0 0 C6.84 4.67 12.79 9.73 14.53 18.18 C14.93 21.23 15.08 24.14 15.1 27.21 C15.11 28.37 15.12 29.52 15.13 30.71 C15.14 32.58 15.14 32.58 15.15 34.49 C15.16 35.83 15.17 37.18 15.18 38.52 C15.21 42.14 15.23 45.77 15.25 49.4 C15.27 53.19 15.3 56.99 15.32 60.79 C15.37 67.97 15.42 75.15 15.46 82.33 C15.51 90.51 15.57 98.69 15.62 106.87 C15.74 123.69 15.84 140.51 15.95 157.33 C16.57 157.32 17.2 157.31 17.85 157.29 C24.44 157.18 31.03 157.11 37.61 157.05 C40.07 157.03 42.52 156.99 44.97 156.95 C48.51 156.89 52.05 156.86 55.59 156.84 C57.22 156.8 57.22 156.8 58.88 156.76 C67.54 156.76 74.67 158.98 81.07 165.02 C82.95 167.33 82.95 167.33 82.95 169.33 C83.61 169.66 84.27 169.99 84.95 170.33 C88.38 175.48 88.16 181.84 87.63 187.89 C86.95 190.33 86.95 190.33 84.95 192.33 C83.92 194.31 83.92 194.31 83.13 196.39 C81.95 198.33 81.95 198.33 79.88 198.89 C78.92 199.11 78.92 199.11 77.95 199.33 C77.62 200.32 77.29 201.31 76.95 202.33 C73.27 205.15 68.77 204.62 64.36 204.6 C63.49 204.61 62.63 204.61 61.73 204.62 C58.87 204.63 56.01 204.63 53.15 204.63 C51.16 204.63 49.16 204.64 47.17 204.64 C42.99 204.65 38.81 204.65 34.63 204.64 C29.29 204.64 23.94 204.65 18.6 204.68 C14.48 204.69 10.36 204.69 6.24 204.69 C4.28 204.69 2.31 204.7 0.34 204.71 C-2.43 204.72 -5.19 204.71 -7.95 204.7 C-8.75 204.71 -9.56 204.72 -10.39 204.72 C-17.95 204.65 -24.5 202.73 -30.05 197.33 C-35.05 191.29 -35.05 191.29 -35.05 187.33 C-35.71 187.33 -36.37 187.33 -37.05 187.33 C-38.57 182.57 -39.31 178.57 -39.33 173.53 C-39.34 172.56 -39.34 172.56 -39.34 171.57 C-39.36 169.42 -39.36 167.28 -39.36 165.13 C-39.37 163.58 -39.38 162.03 -39.39 160.48 C-39.41 156.29 -39.42 152.1 -39.42 147.91 C-39.43 145.28 -39.43 142.66 -39.44 140.03 C-39.46 130.87 -39.48 121.7 -39.48 112.53 C-39.48 104 -39.51 95.48 -39.56 86.96 C-39.59 79.62 -39.61 72.28 -39.61 64.95 C-39.61 60.58 -39.62 56.2 -39.64 51.83 C-39.67 47.71 -39.67 43.59 -39.66 39.48 C-39.66 37.97 -39.66 36.47 -39.68 34.97 C-39.8 23.16 -37.96 13.49 -30.05 4.33 C-21.3 -2.53 -10.14 -5.83 0 0 Z M-38.05 22.33 C-38.05 74.47 -38.05 126.61 -38.05 180.33 C-37.72 180.33 -37.39 180.33 -37.05 180.33 C-37.05 128.19 -37.05 76.05 -37.05 22.33 C-37.38 22.33 -37.71 22.33 -38.05 22.33 Z M79.95 196.33 C80.95 198.33 80.95 198.33 80.95 198.33 Z " fill="#4395D1" transform="translate(70.0546875,72.671875)"/>
<path d="M0 0 C12.58 10.16 21.93 24.8 24 41 C25.25 60.52 22.82 76.68 9.94 92.06 C-0.85 103.6 -15.33 111.6 -31.29 112.37 C-52 112.81 -68.47 107.77 -83.82 93.18 C-84.54 92.46 -85.26 91.74 -86 91 C-86.88 90.14 -86.88 90.14 -87.78 89.26 C-97.68 78.73 -101 63 -101 49 C-99.75 31.96 -92.75 15.57 -80 4 C-55.85 -14.63 -25.7 -17.74 0 0 Z " fill="#FBFDFD" transform="translate(1100,413)"/>
<path d="M0 0 C12.16 9.55 22.04 23.42 24 39 C25.63 59.36 23.38 76.18 9.81 92.12 C-0.95 103.59 -15.15 111.64 -31.1 112.34 C-51.1 112.66 -66.57 108.26 -82 95 C-82.62 94.48 -83.23 93.96 -83.87 93.42 C-94.12 84.04 -99.56 70.63 -100.38 56.93 C-101.01 38.3 -96.36 22.84 -84.25 8.35 C-61.77 -15.07 -26.42 -18.45 0 0 Z " fill="#FBFDFD" transform="translate(657,413)"/>
<path d="M0 0 C11.48 8.28 20.13 21.07 23 35 C24.06 42.78 24.65 49.49 22 57 C19.69 59.83 18.48 60.84 15 62 C12.49 62.12 10.01 62.19 7.5 62.21 C6.36 62.22 6.36 62.22 5.19 62.24 C2.68 62.27 0.16 62.29 -2.36 62.32 C-4.1 62.34 -5.84 62.36 -7.59 62.38 C-12.18 62.43 -16.77 62.48 -21.36 62.53 C-26.05 62.58 -30.73 62.64 -35.42 62.69 C-44.61 62.8 -53.81 62.9 -63 63 C-62 70.5 -60.56 75.2 -54.47 79.99 C-44.29 86.73 -34 88.45 -22 87 C-17.43 85.74 -13.27 84.02 -9 82 C-4.56 80.07 -0.82 79.02 4 80 C6.69 82.18 8.46 83.91 10 87 C10.38 91.51 10.47 94.03 8.5 98.12 C0.31 107.55 -10.75 111.8 -23 113 C-43.55 114.28 -61.82 110.28 -78 97 C-78.72 96.43 -79.44 95.86 -80.18 95.27 C-91.56 85.22 -95.88 69.72 -97.27 55.14 C-97.9 38.81 -92.2 22.64 -81.44 10.38 C-79.98 8.9 -78.5 7.43 -77 6 C-76.46 5.44 -75.92 4.88 -75.37 4.31 C-54.6 -15.68 -22.96 -14.85 0 0 Z " fill="#FBFDFD" transform="translate(266,412)"/>
<path d="M0 0 C3.77 3.03 6.34 5.69 7.88 10.31 C7.99 12 8.04 13.7 8.06 15.39 C8.08 16.43 8.1 17.46 8.12 18.53 C8.13 19.64 8.14 20.76 8.16 21.91 C8.18 23.63 8.18 23.63 8.21 25.38 C8.29 30.29 8.36 35.2 8.43 40.11 C8.48 43.69 8.54 47.27 8.59 50.85 C8.61 51.97 8.62 53.08 8.63 54.23 C8.65 55.27 8.67 56.3 8.69 57.36 C8.7 58.27 8.71 59.18 8.72 60.12 C8.74 62.36 8.74 62.36 9.88 64.31 C10.22 63.82 10.56 63.32 10.91 62.81 C18.65 51.96 28.35 45.05 41.64 42.59 C52.19 41.27 63.2 42.67 72.08 48.89 C84.28 58.57 89.47 71.24 91.88 86.31 C92.48 91.96 92.44 97.62 92.41 103.29 C92.41 104.85 92.41 106.4 92.42 107.95 C92.42 111.17 92.42 114.38 92.4 117.6 C92.37 121.71 92.39 125.82 92.41 129.93 C92.43 133.12 92.42 136.31 92.41 139.5 C92.41 141.02 92.41 142.53 92.42 144.05 C92.43 146.16 92.41 148.27 92.39 150.38 C92.39 151.58 92.39 152.78 92.38 154.01 C91.77 158.01 90.38 160.17 87.88 163.31 C83.84 166.13 80.1 166.97 75.25 166.79 C70.76 165.89 67.05 163.57 63.88 160.31 C60.19 154.06 60.45 147.9 60.46 140.78 C60.47 138.65 60.45 136.53 60.44 134.41 C60.4 129.9 60.39 125.39 60.38 120.88 C60.36 115.65 60.34 110.42 60.29 105.19 C60.28 103.11 60.29 101.03 60.29 98.95 C60.21 88.9 59.01 81.56 51.96 74.02 C47.24 70.15 41.51 68.99 35.5 69.25 C27.98 70.51 20.2 74.04 15.38 80.06 C9.55 89.53 8.3 97.62 8.37 108.68 C8.36 110.04 8.35 111.4 8.34 112.77 C8.32 116.33 8.31 119.89 8.31 123.45 C8.31 129.16 8.3 134.88 8.26 140.59 C8.25 142.58 8.26 144.56 8.26 146.55 C8.26 147.76 8.25 148.97 8.24 150.21 C8.24 151.27 8.25 152.33 8.25 153.42 C7.58 158.57 4.7 161.97 0.88 165.31 C-3.72 166.84 -8.5 167.25 -13.13 165.59 C-18.09 162.94 -21.35 159.64 -23.12 154.31 C-23.22 152.42 -23.26 150.51 -23.27 148.61 C-23.28 147.43 -23.29 146.24 -23.29 145.02 C-23.3 143.71 -23.3 142.41 -23.3 141.06 C-23.31 139.68 -23.31 138.29 -23.32 136.9 C-23.34 132.35 -23.35 127.79 -23.36 123.24 C-23.37 121.67 -23.37 120.1 -23.38 118.53 C-23.39 111.15 -23.41 103.78 -23.42 96.4 C-23.43 87.9 -23.45 79.39 -23.49 70.88 C-23.52 64.3 -23.54 57.73 -23.54 51.15 C-23.54 47.22 -23.55 43.29 -23.58 39.36 C-23.6 35.67 -23.61 31.97 -23.6 28.27 C-23.59 26.28 -23.61 24.28 -23.63 22.29 C-23.59 15.15 -23.04 10.36 -19.12 4.31 C-13.61 -1.06 -7.17 -3.87 0 0 Z " fill="#FBFDFD" transform="translate(891.125,358.6875)"/>
<path d="M0 0 C12.47 9.89 17.82 22.94 19.8 38.43 C19.91 40.79 19.98 43.15 20.02 45.52 C20.04 46.53 20.04 46.53 20.06 47.55 C20.17 54.51 20.21 61.47 20.26 68.42 C20.28 71.71 20.32 75.01 20.38 78.3 C20.45 82.3 20.49 86.29 20.5 90.29 C20.51 91.8 20.53 93.32 20.57 94.83 C20.86 108.1 20.86 108.1 16.44 113.35 C12.38 117.27 8.61 117.78 3.14 117.71 C-1.86 117.11 -5.14 114.55 -8.58 110.93 C-11.29 106.75 -11.33 103.16 -11.36 98.24 C-11.37 96.99 -11.38 95.74 -11.39 94.45 C-11.4 93.78 -11.4 93.11 -11.4 92.43 C-11.41 90.33 -11.43 88.23 -11.46 86.13 C-11.52 80.16 -11.57 74.2 -11.6 68.23 C-11.63 64.57 -11.66 60.92 -11.71 57.26 C-11.72 55.88 -11.73 54.49 -11.73 53.11 C-11.76 42.71 -12.21 33.68 -19.61 25.86 C-24.62 21.33 -30.6 20.1 -37.2 20.43 C-46.75 22.73 -53.44 26.67 -58.81 34.91 C-59.27 35.74 -59.73 36.57 -60.2 37.43 C-60.72 38.34 -61.23 39.25 -61.76 40.19 C-63.98 45.46 -63.63 51.05 -63.61 56.68 C-63.61 58.75 -63.62 60.82 -63.64 62.89 C-63.69 68.02 -63.7 73.15 -63.71 78.29 C-63.72 82.64 -63.74 86.99 -63.78 91.34 C-63.8 93.37 -63.79 95.4 -63.79 97.43 C-63.8 98.67 -63.81 99.91 -63.82 101.19 C-63.82 102.27 -63.82 103.36 -63.82 104.48 C-64.49 109.66 -67.35 113.06 -71.2 116.43 C-75.79 117.96 -80.58 118.37 -85.21 116.71 C-90.17 114.05 -93.43 110.76 -95.2 105.43 C-95.3 104.09 -95.35 102.75 -95.36 101.41 C-95.37 100.59 -95.37 99.77 -95.38 98.93 C-95.39 98.04 -95.39 97.15 -95.4 96.23 C-95.4 95.29 -95.41 94.35 -95.42 93.38 C-95.45 90.26 -95.46 87.13 -95.48 84.01 C-95.48 82.94 -95.49 81.88 -95.49 80.78 C-95.52 75.13 -95.54 69.48 -95.55 63.82 C-95.57 59.15 -95.59 54.48 -95.64 49.81 C-95.68 44.17 -95.71 38.52 -95.72 32.88 C-95.72 30.73 -95.74 28.58 -95.76 26.43 C-95.79 23.42 -95.79 20.41 -95.79 17.4 C-95.8 16.52 -95.82 15.64 -95.84 14.73 C-95.77 8.32 -94.05 3.59 -90.2 -1.57 C-85.98 -5.29 -81.84 -6.2 -76.27 -5.88 C-73.11 -5.41 -71.59 -4.76 -69.2 -2.57 C-65.19 3.08 -63.39 8.64 -62.2 15.43 C-61.86 14.93 -61.52 14.43 -61.17 13.92 C-53.65 3.37 -44.15 -3.57 -31.28 -6.29 C-20.51 -7.75 -9.06 -6.35 0 0 Z " fill="#FBFDFD" transform="translate(1233.203125,407.57421875)"/>
<path d="M0 0 C4.65 3.88 9.12 7.66 10.09 13.91 C10.34 18.83 10.34 21.39 7.3 25.39 C3.1 28.39 -0.22 28.92 -5.32 28.27 C-10.39 26.47 -14.9 23.37 -19.37 20.41 C-26.09 16.47 -32.69 16.47 -40.32 17.27 C-50.19 20.1 -56.86 24.49 -61.96 33.41 C-66.83 43.63 -67.83 54.5 -64.32 65.27 C-60.8 73.76 -55.13 79.71 -46.82 83.7 C-38.86 86.54 -28.27 86.93 -20.39 83.64 C-17.35 82.03 -14.62 80.07 -11.82 78.08 C-7.49 75.11 -3.63 73.65 1.68 74.27 C5.52 76.22 7.29 77.68 9.68 81.27 C10.64 85.46 10.63 89.07 9.68 93.27 C3.06 103.32 -8.63 109.85 -20.14 112.7 C-39.69 115.55 -57.57 111.78 -73.89 100.58 C-86.96 90.68 -95.02 77.63 -97.32 61.27 C-98.91 43.4 -95.2 27.03 -84.22 12.48 C-63.6 -11.68 -26.25 -19.59 0 0 Z " fill="#FBFDFD" transform="translate(537.32421875,411.734375)"/>
<path d="M0 0 C5.14 4.3 11.04 9.41 12.47 16.25 C12.53 20.4 12.34 23.18 9.69 26.5 C6.64 29.33 5.01 29.88 0.94 30.38 C-6.63 29.65 -13 25.19 -19.21 21.02 C-25.35 17.53 -34.16 18.06 -40.79 19.68 C-43.32 20.63 -45.63 21.71 -48 23 C-48.71 23.37 -49.42 23.73 -50.15 24.11 C-57.38 28.6 -61.05 37.15 -63.67 45.02 C-65.53 56.21 -63.34 65.31 -58.38 75.25 C-52.13 82.48 -44.67 86.51 -35.13 87.34 C-33.8 87.37 -32.46 87.38 -31.12 87.38 C-30.07 87.37 -30.07 87.37 -29 87.37 C-20.47 87.17 -15.45 84.26 -9 79 C-4.52 76.55 -0.95 75.32 4.07 76.25 C7.95 77.76 10.16 80.32 12 84 C13.12 88.41 13.06 92.11 10.8 96.14 C2.28 106.62 -9.69 113.23 -23 115 C-43.77 116.34 -61.01 111.76 -77 98 C-77.69 97.43 -78.38 96.86 -79.09 96.27 C-85.4 90.59 -88.74 83.68 -92 76 C-92.36 75.15 -92.73 74.3 -93.1 73.43 C-98.26 58.45 -95.91 40.25 -89.71 26.06 C-83.56 13.73 -73.36 3.48 -60.81 -2.19 C-59.69 -2.7 -59.69 -2.7 -58.55 -3.22 C-39.19 -11.82 -18.21 -11.61 0 0 Z " fill="#FBFDFD" transform="translate(840,410)"/>
<path d="M0 0 C3.91 2.38 5.95 4.95 8 9 C8.38 11.94 8.38 11.94 8.39 15.26 C8.41 16.52 8.42 17.78 8.43 19.07 C8.43 20.46 8.42 21.85 8.42 23.24 C8.43 24.71 8.44 26.18 8.45 27.65 C8.47 31.63 8.47 35.62 8.47 39.6 C8.47 42.93 8.48 46.25 8.49 49.58 C8.5 57.43 8.51 65.28 8.5 73.13 C8.49 81.23 8.52 89.32 8.55 97.42 C8.58 104.37 8.6 111.33 8.59 118.28 C8.59 122.44 8.6 126.59 8.62 130.74 C8.64 134.64 8.64 138.55 8.62 142.45 C8.62 143.88 8.62 145.31 8.64 146.75 C8.75 158.9 8.75 158.9 5.59 162.81 C1.13 166.58 -1.86 167.45 -7.62 167.32 C-12.54 166.66 -16.56 164.54 -19.94 160.94 C-21.94 157.28 -22.13 154.32 -22.15 150.23 C-22.15 149.02 -22.16 147.82 -22.17 146.58 C-22.17 145.24 -22.17 143.9 -22.18 142.57 C-22.18 141.16 -22.19 139.76 -22.2 138.35 C-22.22 133.73 -22.23 129.11 -22.24 124.49 C-22.24 122.9 -22.25 121.3 -22.25 119.71 C-22.27 112.23 -22.28 104.75 -22.29 97.27 C-22.3 88.64 -22.33 80.02 -22.37 71.39 C-22.4 64.72 -22.41 58.04 -22.42 51.37 C-22.42 47.39 -22.43 43.41 -22.45 39.42 C-22.48 35.67 -22.48 31.92 -22.47 28.17 C-22.47 26.15 -22.49 24.12 -22.51 22.1 C-22.47 14.92 -21.94 10.08 -18 4 C-12.78 -0.88 -6.75 -2.17 0 0 Z " fill="#FBFDFD" transform="translate(328,358)"/>
<path d="M0 0 C4.29 3.36 7.66 7.4 8.38 12.91 C8.38 13.99 8.39 15.07 8.39 16.18 C8.4 17.42 8.41 18.67 8.42 19.95 C8.41 21.32 8.41 22.69 8.4 24.06 C8.41 25.51 8.42 26.96 8.42 28.41 C8.44 32.34 8.44 36.27 8.44 40.19 C8.43 43.48 8.44 46.76 8.44 50.04 C8.46 57.79 8.46 65.53 8.45 73.28 C8.43 81.27 8.45 89.25 8.48 97.24 C8.5 104.1 8.5 110.96 8.5 117.82 C8.49 121.92 8.5 126.01 8.51 130.11 C8.53 133.96 8.53 137.81 8.51 141.67 C8.5 143.08 8.51 144.49 8.52 145.9 C8.61 159.11 8.61 159.11 4 164 C0.25 167.31 -3.52 167.63 -8.36 167.49 C-12.98 166.63 -16.61 164.19 -20 161 C-22.12 157.65 -22.26 154.95 -22.27 151.03 C-22.29 149.2 -22.29 149.2 -22.3 147.33 C-22.31 145.97 -22.31 144.62 -22.31 143.27 C-22.31 141.84 -22.32 140.42 -22.33 138.99 C-22.35 135.12 -22.36 131.25 -22.37 127.38 C-22.37 124.96 -22.38 122.53 -22.38 120.11 C-22.41 111.66 -22.42 103.21 -22.43 94.76 C-22.43 86.89 -22.46 79.02 -22.5 71.15 C-22.54 64.39 -22.55 57.63 -22.55 50.87 C-22.55 46.83 -22.56 42.8 -22.59 38.76 C-22.62 34.96 -22.62 31.17 -22.6 27.37 C-22.6 25.98 -22.61 24.59 -22.62 23.2 C-22.71 15.4 -22.64 8.88 -17 3 C-11.65 -1 -6.43 -2.13 0 0 Z " fill="#FBFDFD" transform="translate(720,358)"/>
<path d="M0 0 C8.76 5.31 13.69 13.61 16.59 23.26 C19.07 34.91 17.36 46.12 10.98 56.09 C6.2 62.54 0.56 65.86 -7.09 68.07 C-16.96 69.24 -25.49 68.11 -33.59 62.01 C-40.41 56.26 -45.03 49.25 -46.72 40.38 C-47.66 28.22 -45.58 18.4 -38.48 8.39 C-35.4 4.89 -31.78 2.62 -27.72 0.38 C-26.65 -0.24 -25.57 -0.85 -24.47 -1.49 C-16.3 -3.94 -7.77 -3.61 0 0 Z " fill="#92C01E" transform="translate(1076.71875,430.6171875)"/>
<path d="M0 0 C8.25 4.98 12.86 12.51 16.28 21.38 C18.78 33.07 18.17 45.75 11.58 56.02 C6.01 62.82 -1.02 66.99 -9.72 68.38 C-18.63 69.23 -26.41 67.4 -33.6 62 C-41.59 55.26 -46.03 47.15 -46.96 36.68 C-47.27 24.87 -43.93 14.11 -35.72 5.38 C-25.02 -2.68 -12.63 -5.89 0 0 Z " fill="#92C01E" transform="translate(633.72265625,430.625)"/>
<path d="M0 0 C6.99 5.69 10.68 12.78 12.69 21.49 C13.67 32.38 14.43 45.03 7.73 54.16 C2.67 60.14 -2.42 64.93 -10.31 66.49 C-21.49 67.33 -29.6 65.66 -38.3 58.45 C-44.9 52.02 -48.62 43.16 -48.83 34 C-48.82 33.25 -48.82 32.51 -48.81 31.74 C-48.8 30.96 -48.8 30.17 -48.79 29.37 C-48.58 22.3 -46.86 16.63 -43.31 10.49 C-42.87 9.73 -42.44 8.98 -41.99 8.2 C-37.55 1.46 -31.05 -2.11 -23.62 -4.88 C-14.93 -6.52 -7.42 -4.85 0 0 Z " fill="#92C01E" transform="translate(110.30859375,432.5078125)"/>
<path d="M0 0 C6.38 4.71 10.04 10.02 12.19 17.61 C12.19 18.93 12.19 20.25 12.19 21.61 C-6.62 21.61 -25.43 21.61 -44.81 21.61 C-43.57 12.91 -40.75 7.39 -33.8 1.93 C-23.65 -4.8 -10.76 -6.28 0 0 Z " fill="#92C01E" transform="translate(246.8125,431.38671875)"/>
<path d="M0 0 C3.99 3.29 5.69 7.07 6.5 12.12 C5.76 17.85 2.74 20.77 -1 25 C-2.21 26.48 -2.21 26.48 -3.45 27.98 C-4.29 28.98 -5.13 29.97 -6 31 C-7.18 32.39 -7.18 32.39 -8.38 33.81 C-11.64 36.54 -13.79 36.89 -18 37 C-21.29 35.42 -23.42 34.38 -24.86 30.94 C-25.07 26.43 -23.43 22.78 -21.81 18.62 C-21.51 17.8 -21.2 16.98 -20.89 16.12 C-16.13 3.55 -16.13 3.55 -11.25 0 C-7.17 -1.25 -4.03 -1.52 0 0 Z " fill="#FBFDFD" transform="translate(1076,358)"/>
<path d="M0 0 C0.33 0 0.66 0 1 0 C1 78.21 1 156.42 1 237 C0.67 237 0.34 237 0 237 C0 158.79 0 80.58 0 0 Z " fill="#4496D2" transform="translate(1031,24)"/>
<path d="M0 0 C0 3 0 3 -1.5 4.69 C-2 5.12 -2.49 5.55 -3 6 C-3.66 5.67 -4.32 5.34 -5 5 C-3.35 3.35 -1.7 1.7 0 0 Z " fill="#1E4460" transform="translate(721,268)"/>
<path d="M0 0 C0 3 0 3 -1.5 4.69 C-2 5.12 -2.49 5.55 -3 6 C-3.66 5.67 -4.32 5.34 -5 5 C-3.35 3.35 -1.7 1.7 0 0 Z " fill="#1E4460" transform="translate(576,268)"/>
<path d="M0 0 C0 3 0 3 -1.5 4.69 C-2 5.12 -2.49 5.55 -3 6 C-3.66 5.67 -4.32 5.34 -5 5 C-3.35 3.35 -1.7 1.7 0 0 Z " fill="#1E4460" transform="translate(979,150)"/>
<path d="M0 0 C0 0.99 0 1.98 0 3 C-1.98 3.99 -1.98 3.99 -4 5 C-2.68 3.35 -1.36 1.7 0 0 Z " fill="#1E425E" transform="translate(1081,273)"/>
<path d="M0 0 C0 0.99 0 1.98 0 3 C-0.99 3 -1.98 3 -3 3 C-2.01 2.01 -1.02 1.02 0 0 Z " fill="#1D405B" transform="translate(1103,130)"/>
<path d="M0 0 C2.31 0 4.62 0 7 0 C7 0.33 7 0.66 7 1 C4.69 1 2.38 1 0 1 C0 0.67 0 0.34 0 0 Z " fill="#4496D2" transform="translate(626,72)"/>
<path d="M0 0 C1.98 0 3.96 0 6 0 C6 0.33 6 0.66 6 1 C4.02 1 2.04 1 0 1 C0 0.67 0 0.34 0 0 Z " fill="#4496D2" transform="translate(755,72)"/>
<path d="M0 0 C1.98 0 3.96 0 6 0 C6 0.33 6 0.66 6 1 C4.02 1 2.04 1 0 1 C0 0.67 0 0.34 0 0 Z " fill="#4496D2" transform="translate(498,72)"/>
<path d="M0 0 C0 0.99 0 1.98 0 3 C-0.66 2.67 -1.32 2.34 -2 2 C-1.34 1.34 -0.68 0.68 0 0 Z " fill="#1B3C55" transform="translate(1216,254)"/>
<path d="M0 0 C4 1 4 1 4 1 Z " fill="#4496D2" transform="translate(1144,72)"/>
<path d="M0 0 C0.33 0.66 0.66 1.32 1 2 C0.34 1.67 -0.32 1.34 -1 1 C-0.67 0.67 -0.34 0.34 0 0 Z " fill="#163247" transform="translate(309,265)"/>
<path d="M0 0 C0.33 0.66 0.66 1.32 1 2 C0.34 1.67 -0.32 1.34 -1 1 C-0.67 0.67 -0.34 0.34 0 0 Z " fill="#163247" transform="translate(318,256)"/>
<path d="M0 0 C0.33 0.66 0.66 1.32 1 2 C0.34 1.67 -0.32 1.34 -1 1 C-0.67 0.67 -0.34 0.34 0 0 Z " fill="#163247" transform="translate(969,251)"/>
<path d="M0 0 C0.33 0.66 0.66 1.32 1 2 C0.34 1.67 -0.32 1.34 -1 1 C-0.67 0.67 -0.34 0.34 0 0 Z " fill="#163247" transform="translate(983,237)"/>
<path d="M0 0 C0.33 0.66 0.66 1.32 1 2 C0.34 1.67 -0.32 1.34 -1 1 C-0.67 0.67 -0.34 0.34 0 0 Z " fill="#163247" transform="translate(1099,134)"/>
<path d="M0 0 C0.33 0.66 0.66 1.32 1 2 C0.34 1.67 -0.32 1.34 -1 1 C-0.67 0.67 -0.34 0.34 0 0 Z " fill="#163247" transform="translate(240,132)"/>
<path d="M0 0 C0.33 0.66 0.66 1.32 1 2 C0.34 1.67 -0.32 1.34 -1 1 C-0.67 0.67 -0.34 0.34 0 0 Z " fill="#163247" transform="translate(858,130)"/>
<path d="" fill="#224B6A" transform="translate(0,0)"/>
<path d="" fill="#000002" transform="translate(0,0)"/>
<path d="" fill="#000002" transform="translate(0,0)"/>
<path d="" fill="#000002" transform="translate(0,0)"/>
<path d="" fill="#000002" transform="translate(0,0)"/>
<path d="" fill="#000002" transform="translate(0,0)"/>
<path d="" fill="#000002" transform="translate(0,0)"/>
<path d="" fill="#000002" transform="translate(0,0)"/>
<path d="" fill="#000002" transform="translate(0,0)"/>
<path d="" fill="#000002" transform="translate(0,0)"/>
<path d="" fill="#000002" transform="translate(0,0)"/>
<path d="" fill="#000002" transform="translate(0,0)"/>
<path d="" fill="#000002" transform="translate(0,0)"/>
<path d="" fill="#000002" transform="translate(0,0)"/>
<path d="" fill="#000002" transform="translate(0,0)"/>
<path d="" fill="#000002" transform="translate(0,0)"/>
<path d="" fill="#000002" transform="translate(0,0)"/>
<path d="" fill="#000002" transform="translate(0,0)"/>
<path d="" fill="#000002" transform="translate(0,0)"/>
<path d="" fill="#000002" transform="translate(0,0)"/>
<path d="" fill="#000002" transform="translate(0,0)"/>
<path d="" fill="#000002" transform="translate(0,0)"/>
<path d="" fill="#000002" transform="translate(0,0)"/>
<path d="" fill="#000002" transform="translate(0,0)"/>
<path d="" fill="#000002" transform="translate(0,0)"/>
<path d="" fill="#000002" transform="translate(0,0)"/>
<path d="" fill="#000002" transform="translate(0,0)"/>
<path d="" fill="#000002" transform="translate(0,0)"/>
<path d="" fill="#000002" transform="translate(0,0)"/>
<path d="" fill="#000002" transform="translate(0,0)"/>
<path d="" fill="#000002" transform="translate(0,0)"/>
<path d="" fill="#000002" transform="translate(0,0)"/>
<path d="" fill="#000002" transform="translate(0,0)"/>
<path d="" fill="#000002" transform="translate(0,0)"/>
<path d="" fill="#000002" transform="translate(0,0)"/>
<path d="" fill="#000002" transform="translate(0,0)"/>
<path d="" fill="#000002" transform="translate(0,0)"/>
<path d="" fill="#000002" transform="translate(0,0)"/>
<path d="" fill="#000002" transform="translate(0,0)"/>
<path d="" fill="#4496D2" transform="translate(0,0)"/>
<path d="" fill="#4496D2" transform="translate(0,0)"/>
<path d="" fill="#4496D2" transform="translate(0,0)"/>
<path d="" fill="#4496D2" transform="translate(0,0)"/>
<path d="" fill="#4496D2" transform="translate(0,0)"/>
<path d="" fill="#000002" transform="translate(0,0)"/>
<path d="" fill="#000002" transform="translate(0,0)"/>
<path d="" fill="#000002" transform="translate(0,0)"/>
<path d="" fill="#000002" transform="translate(0,0)"/>
<path d="" fill="#000002" transform="translate(0,0)"/>
<path d="" fill="#000002" transform="translate(0,0)"/>
<path d="" fill="#000002" transform="translate(0,0)"/>
<path d="" fill="#000002" transform="translate(0,0)"/>
<path d="" fill="#000002" transform="translate(0,0)"/>
<path d="" fill="#000002" transform="translate(0,0)"/>
<path d="" fill="#000002" transform="translate(0,0)"/>
<path d="" fill="#000002" transform="translate(0,0)"/>
<path d="" fill="#000002" transform="translate(0,0)"/>
<path d="" fill="#000002" transform="translate(0,0)"/>
<path d="" fill="#000002" transform="translate(0,0)"/>
<path d="" fill="#000002" transform="translate(0,0)"/>
<path d="" fill="#000002" transform="translate(0,0)"/>
<path d="" fill="#000002" transform="translate(0,0)"/>
<path d="" fill="#000002" transform="translate(0,0)"/>
<path d="" fill="#000002" transform="translate(0,0)"/>
<path d="" fill="#4496D2" transform="translate(0,0)"/>
<path d="" fill="#4496D2" transform="translate(0,0)"/>
<path d="" fill="#4496D2" transform="translate(0,0)"/>
<path d="" fill="#4496D2" transform="translate(0,0)"/>
<path d="" fill="#4496D2" transform="translate(0,0)"/>
<path d="" fill="#4496D2" transform="translate(0,0)"/>
<path d="" fill="#4496D2" transform="translate(0,0)"/>
<path d="" fill="#4496D2" transform="translate(0,0)"/>
<path d="" fill="#4496D2" transform="translate(0,0)"/>
<path d="" fill="#4496D2" transform="translate(0,0)"/>
<path d="" fill="#4496D2" transform="translate(0,0)"/>
<path d="" fill="#4496D2" transform="translate(0,0)"/>
<path d="" fill="#4496D2" transform="translate(0,0)"/>
<path d="" fill="#4496D2" transform="translate(0,0)"/>
<path d="" fill="#4496D2" transform="translate(0,0)"/>
<path d="" fill="#4496D2" transform="translate(0,0)"/>
</svg>
